<?xml version="1.0" encoding="utf-8"?>
<!-- Generator: Adobe Illustrator 18.1.1, SVG Export Plug-In . SVG Version: 6.00 Build 0)  -->
<svg version="1.1" id="Capa_1" xmlns="http://www.w3.org/2000/svg" xmlns:xlink="http://www.w3.org/1999/xlink" x="0px" y="0px"
	 viewBox="0 0 758.8 600" enable-background="new 0 0 758.8 600" xml:space="preserve">
<rect x="150.1" y="242.2" opacity="0.6" fill="#F2F2F2" width="518" height="144.1"/>
<rect x="149.9" y="385.8" opacity="0.6" fill="#F2F2F2" width="518.2" height="26.2"/>
<rect x="150.1" y="124.4" opacity="0.6" fill="#F2F2F2" width="518" height="117.4"/>
<rect x="344.6" y="81.4" fill="#FFFFFF" width="1.9" height="330.6"/>
<rect x="441.2" y="81.4" fill="#FFFFFF" width="2.2" height="330.6"/>
<rect x="592.7" y="81.4" fill="#FFFFFF" width="2.3" height="330.6"/>
<rect x="263.4" y="81.4" fill="#FFFFFF" width="2.2" height="330.6"/>
<rect x="150.1" y="146.6" fill="#FFFFFF" width="518" height="1.3"/>
<rect x="150.1" y="216.8" fill="#FFFFFF" width="518" height="1.3"/>
<rect x="150.1" y="286.9" fill="#FFFFFF" width="518" height="1.3"/>
<rect x="150.1" y="357.5" fill="#FFFFFF" width="518" height="1.3"/>
<text transform="matrix(1 0 0 1 146.9635 70.5895)" font-family="'Helvetica-Bold'" font-size="34.809">Esperanza de vida</text>
<text transform="matrix(1 0 0 1 149.5576 103.2447)"><tspan x="0" y="0" fill="#808080" font-family="'Helvetica'" font-size="17.4045">Expectativa de años de vida para los </tspan><tspan x="0" y="20.9" fill="#808080" font-family="'Helvetica'" font-size="17.4045">nacidos entre el año 2004 y el 2006</tspan></text>
<g>
	<text transform="matrix(1 0 0 1 78.2814 362.8948)" fill="#8E113F" font-family="'Helvetica-Bold'" font-size="17.4045">75 años</text>
	<text transform="matrix(1 0 0 1 78.298 292.7014)" fill="#666666" font-family="'Helvetica-Bold'" font-size="17.4">80 años</text>
	<text transform="matrix(1 0 0 1 78.298 222.5071)" fill="#666666" font-family="'Helvetica-Bold'" font-size="17.4">85 años</text>
	<text transform="matrix(1 0 0 1 78.298 152.3137)" fill="#666666" font-family="'Helvetica-Bold'" font-size="17.4">90 años</text>
</g>
<g>
	<g>
		<g>
			<path fill="none" stroke="#9B59B6" stroke-width="9" stroke-miterlimit="10" d="M636.6,235.1c0,0-20.8,5.4-27.8,7.3
				c-7,1.9-21,5.5-27.8,8c-7.2,2.7-21.4,8.6-27.8,12.9c-7.9,5.4-20.4,20.2-27.8,26.3c-6.6,5.5-19.3,21.4-27.8,20.2
				c-11.2-1.6-18.5-29.2-27.8-35.7c-6-4.2-20.8-7-27.8-9.1c-6.9-2.1-21.3-4.3-27.8-7.5c-7.8-3.9-19-20.6-27.8-21.2
				c-8-0.5-19.8,15-27.8,16.2c-7.1,1.1-21.2-9.4-27.8-6.5c-12.7,5.5-15.1,42.4-27.8,47.9c-6.5,2.8-21.6-2.7-27.8-6.3
				c-8.8-5-18.4-25.6-27.8-29.7c-6.4-2.8-21-1.5-27.8,0c-7.5,1.6-20.1,12.3-27.8,12.8c-7.2,0.6-27.8-8-27.8-8"/>
		</g>
	</g>
</g>
<g>
	<g>
		<g>
			<rect x="161.5" y="259.5" stroke="#000000" stroke-miterlimit="10" width="6" height="6"/>
			<rect x="189.5" y="267.5" stroke="#000000" stroke-miterlimit="10" width="6" height="6"/>
			<rect x="217.5" y="254.5" stroke="#000000" stroke-miterlimit="10" width="6" height="6"/>
			<rect x="244.5" y="254.5" stroke="#000000" stroke-miterlimit="10" width="6" height="6"/>
			<rect x="272.5" y="284.5" stroke="#000000" stroke-miterlimit="10" width="6" height="6"/>
			<rect x="300.5" y="290.5" stroke="#000000" stroke-miterlimit="10" width="6" height="6"/>
			<rect x="328.5" y="242.5" stroke="#000000" stroke-miterlimit="10" width="6" height="6"/>
			<rect x="355.5" y="249.5" stroke="#000000" stroke-miterlimit="10" width="6" height="6"/>
			<rect x="383.5" y="233.5" stroke="#000000" stroke-miterlimit="10" width="6" height="6"/>
			<rect x="411.5" y="254.5" stroke="#000000" stroke-miterlimit="10" width="6" height="6"/>
			<rect x="439.5" y="261.5" stroke="#000000" stroke-miterlimit="10" width="6" height="6"/>
			<rect x="466.5" y="271.5" stroke="#000000" stroke-miterlimit="10" width="6" height="6"/>
			<rect x="494.5" y="306.5" stroke="#000000" stroke-miterlimit="10" width="6" height="6"/>
			<rect x="522.5" y="286.5" stroke="#000000" stroke-miterlimit="10" width="6" height="6"/>
			<rect x="550.5" y="260.5" stroke="#000000" stroke-miterlimit="10" width="6" height="6"/>
			<rect x="577.5" y="247.5" stroke="#000000" stroke-miterlimit="10" width="6" height="6"/>
			<rect x="605.5" y="239.5" stroke="#000000" stroke-miterlimit="10" width="6" height="6"/>
			<rect x="633.5" y="232.5" stroke="#000000" stroke-miterlimit="10" width="6" height="6"/>
		</g>
	</g>
</g>
<text transform="matrix(0.6399 -0.7685 0.7685 0.6399 105.5041 504.6462)" font-family="'Helvetica-Bold'" font-size="13.9236">Villaverde Alto</text>
<text transform="matrix(0.6399 -0.7685 0.7685 0.6399 131.5385 541.007)" font-family="'Helvetica-Bold'" font-size="13.9236">Villaverde Bajo Cruce</text>
<text transform="matrix(0.6399 -0.7685 0.7685 0.6399 137.7491 502.4773)" font-family="'Helvetica-Bold'" font-size="13.9236">San Cristóbal</text>
<text transform="matrix(0.6399 -0.7685 0.7685 0.6399 154.299 545.8175)" font-family="'Helvetica-Bold'" font-size="13.9236">Ciudad de los Ángeles</text>
<text transform="matrix(0.6399 -0.7685 0.7685 0.6399 187.0267 541.212)" font-family="'Helvetica-Bold'" font-size="13.9236">San Fermín - Orcasur</text>
<text transform="matrix(0.6399 -0.7685 0.7685 0.6399 208.4577 547.8086)" font-family="'Helvetica-Bold'" font-size="13.9236">Hospital 12 de Octubre</text>
<text transform="matrix(0.6399 -0.7685 0.7685 0.6399 280.257 495.3627)" font-family="'Helvetica-Bold'" font-size="13.9236">Almendrales</text>
<text transform="matrix(0.6399 -0.7685 0.7685 0.6399 327.7265 473.4473)" font-family="'Helvetica-Bold'" font-size="13.9236">Legazpi</text>
<text transform="matrix(0.6399 -0.7685 0.7685 0.6399 354.6076 471.7232)" font-family="'Helvetica-Bold'" font-size="13.9236">Delicias</text>
<text transform="matrix(0.6399 -0.7685 0.7685 0.6399 330.452 533.4597)" font-family="'Helvetica-Bold'" font-size="13.9236">Palos de la Frontera</text>
<text transform="matrix(0.6399 -0.7685 0.7685 0.6399 387.2265 498.264)" font-family="'Helvetica-Bold'" font-size="13.9236">Embajadores</text>
<text transform="matrix(0.6399 -0.7685 0.7685 0.6399 432.7972 476.8265)" font-family="'Helvetica-Bold'" font-size="13.9236">Lavapiés</text>
<text transform="matrix(0.6399 -0.7685 0.7685 0.6399 482.7463 450.0832)" font-family="'Helvetica-Bold'" font-size="13.9236">Sol</text>
<text transform="matrix(0.6399 -0.7685 0.7685 0.6399 498.7669 462.8481)" font-family="'Helvetica-Bold'" font-size="13.9236">Callao</text>
<text transform="matrix(0.6399 -0.7685 0.7685 0.6399 483.7916 515.053)" font-family="'Helvetica-Bold'" font-size="13.9236">Plaza de España</text>
<text transform="matrix(0.6399 -0.7685 0.7685 0.6399 500.171 526.5354)" font-family="'Helvetica-Bold'" font-size="13.9236">Ventura Rodríguez</text>
<text transform="matrix(0.6399 -0.7685 0.7685 0.6399 566.1044 480.0817)" font-family="'Helvetica-Bold'" font-size="13.9236">Argüelles</text>
<text transform="matrix(0.6399 -0.7685 0.7685 0.6399 598.5057 474.6625)" font-family="'Helvetica-Bold'" font-size="13.9236">Moncloa</text>
<circle fill="#9B59B6" stroke="#FFFFFF" stroke-width="5" stroke-miterlimit="10" cx="164.4" cy="262.4" r="5.4"/>
<circle fill="#9B59B6" stroke="#FFFFFF" stroke-width="5" stroke-miterlimit="10" cx="192.4" cy="270.4" r="5.4"/>
<circle fill="#9B59B6" stroke="#FFFFFF" stroke-width="5" stroke-miterlimit="10" cx="220.4" cy="257.4" r="5.4"/>
<circle fill="#9B59B6" stroke="#FFFFFF" stroke-width="5" stroke-miterlimit="10" cx="247.4" cy="257.4" r="5.4"/>
<circle fill="#9B59B6" stroke="#FFFFFF" stroke-width="5" stroke-miterlimit="10" cx="275.4" cy="287.4" r="5.4"/>
<circle fill="#9B59B6" stroke="#FFFFFF" stroke-width="5" stroke-miterlimit="10" cx="303.4" cy="293.4" r="5.4"/>
<circle fill="#9B59B6" stroke="#FFFFFF" stroke-width="5" stroke-miterlimit="10" cx="331.4" cy="245.4" r="5.4"/>
<circle fill="#9B59B6" stroke="#FFFFFF" stroke-width="5" stroke-miterlimit="10" cx="358.4" cy="252.4" r="5.4"/>
<circle fill="#9B59B6" stroke="#FFFFFF" stroke-width="5" stroke-miterlimit="10" cx="386.4" cy="236.4" r="5.4"/>
<circle fill="#9B59B6" stroke="#FFFFFF" stroke-width="5" stroke-miterlimit="10" cx="414.4" cy="257.4" r="5.4"/>
<circle fill="#9B59B6" stroke="#FFFFFF" stroke-width="5" stroke-miterlimit="10" cx="442.4" cy="264.4" r="5.4"/>
<circle fill="#9B59B6" stroke="#FFFFFF" stroke-width="5" stroke-miterlimit="10" cx="469.4" cy="274.4" r="5.4"/>
<circle fill="#9B59B6" stroke="#FFFFFF" stroke-width="5" stroke-miterlimit="10" cx="497.4" cy="309.4" r="5.4"/>
<circle fill="#9B59B6" stroke="#FFFFFF" stroke-width="5" stroke-miterlimit="10" cx="525.4" cy="289.4" r="5.4"/>
<circle fill="#9B59B6" stroke="#FFFFFF" stroke-width="5" stroke-miterlimit="10" cx="553.4" cy="263.4" r="5.4"/>
<circle fill="#9B59B6" stroke="#FFFFFF" stroke-width="5" stroke-miterlimit="10" cx="580.4" cy="250.4" r="5.4"/>
<circle fill="#9B59B6" stroke="#FFFFFF" stroke-width="5" stroke-miterlimit="10" cx="608.4" cy="242.4" r="5.4"/>
<circle fill="#9B59B6" stroke="#FFFFFF" stroke-width="5" stroke-miterlimit="10" cx="636.4" cy="235.4" r="5.4"/>
<text transform="matrix(1 -8.000000e-05 8.000000e-05 1 150.1196 412.028)" fill="#999999" font-family="'Helvetica-Bold'" font-size="13.9236">Villaverde</text>
<text transform="matrix(1 -8.000000e-05 8.000000e-05 1 264.7055 412.0114)" fill="#999999" font-family="'Helvetica-Bold'" font-size="13.9236">Usera</text>
<text transform="matrix(1 -8.000000e-05 8.000000e-05 1 346.5951 412.027)" fill="#999999" font-family="'Helvetica-Bold'" font-size="13.9236">Arganzuela</text>
<text transform="matrix(1 -8.000000e-05 8.000000e-05 1 443.0053 412.0283)" fill="#999999" font-family="'Helvetica-Bold'" font-size="13.9236">Centro</text>
<text transform="matrix(1 -8.000000e-05 8.000000e-05 1 593.9838 395.3244)"><tspan x="0" y="0" fill="#999999" font-family="'Helvetica-Bold'" font-size="13.9236">Chamberí</tspan><tspan x="0" y="16.7" fill="#999999" font-family="'Helvetica-Bold'" font-size="13.9236">Moncloa-A.</tspan></text>
</svg>
