<?xml version="1.0" encoding="utf-8"?>
<!-- Generator: Adobe Illustrator 18.1.1, SVG Export Plug-In . SVG Version: 6.00 Build 0)  -->
<svg version="1.1" id="Capa_1" xmlns="http://www.w3.org/2000/svg" xmlns:xlink="http://www.w3.org/1999/xlink" x="0px" y="0px"
	 viewBox="0 0 736.9 600" enable-background="new 0 0 736.9 600" xml:space="preserve">
<rect x="129.9" y="231.9" opacity="0.6" fill="#F2F2F2" width="513.4" height="144.1"/>
<rect x="129.9" y="375.8" opacity="0.6" fill="#F2F2F2" width="513.4" height="49.8"/>
<rect x="129.9" y="117.3" opacity="0.6" fill="#F2F2F2" width="513.4" height="114.6"/>
<rect x="319.8" y="117.3" fill="#FFFFFF" width="2.3" height="308.3"/>
<rect x="416.4" y="117.3" fill="#FFFFFF" width="2.3" height="308.3"/>
<rect x="567.8" y="117.3" fill="#FFFFFF" width="2.3" height="308.3"/>
<rect x="238.6" y="117.3" fill="#FFFFFF" width="2.3" height="308.3"/>
<rect x="129.9" y="375.4" fill="#FFFFFF" width="513.4" height="1.3"/>
<rect x="129.5" y="280.5" fill="#FFFFFF" width="513.8" height="1.3"/>
<rect x="129.5" y="232.6" fill="#FFFFFF" width="513.8" height="1.3"/>
<rect x="129.5" y="184.8" fill="#FFFFFF" width="513.8" height="1.3"/>
<rect x="129.5" y="137.8" fill="#FFFFFF" width="513.8" height="1.3"/>
<rect x="129.5" y="327.5" fill="#FFFFFF" width="513.8" height="1.3"/>
<g>
	<g>
		<g>
			<path fill="none" stroke="#27AE60" stroke-width="9" stroke-miterlimit="10" d="M609.2,140.8c0,0-19.8,12.7-27.4,13.1
				c-7,0.4-20.6-7.2-27.4-5.4c-8.9,2.4-21,18.2-27.4,24.9c-6.3,6.6-18.5,22.3-27.4,24.3c-6.7,1.5-21.4-6.2-27.4-2.9
				c-12.7,7-19.2,39-27.4,50.9c-4.8,7-19.3,22.4-27.4,19.8c-12.1-3.9-14.8-44.5-27.4-42.7c-13.4,1.9-13.8,47.4-27.4,46.9
				c-10.5-0.4-17.5-35.2-27.4-31.8c-21.4,7.3-4.8,85.5-27.4,86.1c-11.9,0.4-15.6-40.5-27.4-38.9c-13.7,1.8-15.1,41.6-27.4,48
				c-6.1,3.2-21.9-1.9-27.4,2.2c-10.5,8-14.7,41.4-27.4,45.1c-7.1,2.1-20.2-9.8-27.4-11.7c-6.7-1.8-27.4-3.5-27.4-3.5"/>
		</g>
	</g>
</g>
<text transform="matrix(1 0 0 1 76.7189 384.301)" fill="#8E113F" font-family="'Helvetica-Bold'" font-size="17.4045">10%</text>
<text transform="matrix(1 0 0 1 76.7189 336.7034)" fill="#808080" font-family="'Helvetica-Bold'" font-size="17.4045">20%</text>
<text transform="matrix(1 0 0 1 76.7189 289.1072)" fill="#808080" font-family="'Helvetica-Bold'" font-size="17.4045">30%</text>
<text transform="matrix(1 0 0 1 76.7189 241.5115)" fill="#808080" font-family="'Helvetica-Bold'" font-size="17.4045">40%</text>
<text transform="matrix(1 0 0 1 76.7189 193.9148)" fill="#808080" font-family="'Helvetica-Bold'" font-size="17.4045">50%</text>
<text transform="matrix(1 0 0 1 76.7189 146.3181)" fill="#808080" font-family="'Helvetica-Bold'" font-size="17.4045">60%</text>
<g>
	<g>
		<g>
			<rect x="140.5" y="362.5" stroke="#000000" stroke-miterlimit="10" width="5" height="6"/>
			<rect x="168.5" y="366.5" stroke="#000000" stroke-miterlimit="10" width="5" height="5"/>
			<rect x="195.5" y="377.5" stroke="#000000" stroke-miterlimit="10" width="5" height="6"/>
			<rect x="222.5" y="332.5" stroke="#000000" stroke-miterlimit="10" width="6" height="5"/>
			<rect x="250.5" y="330.5" stroke="#000000" stroke-miterlimit="10" width="4" height="5"/>
			<rect x="278.5" y="283.5" stroke="#000000" stroke-miterlimit="10" width="5" height="5"/>
			<rect x="305.5" y="321.5" stroke="#000000" stroke-miterlimit="10" width="5" height="4"/>
			<rect x="332.5" y="234.5" stroke="#000000" stroke-miterlimit="10" width="6" height="6"/>
			<rect x="359.5" y="266.5" stroke="#000000" stroke-miterlimit="10" width="6" height="6"/>
			<rect x="386.5" y="220.5" stroke="#000000" stroke-miterlimit="10" width="5" height="5"/>
			<rect x="415.5" y="262.5" stroke="#000000" stroke-miterlimit="10" width="4" height="5"/>
			<rect x="441.5" y="242.5" stroke="#000000" stroke-miterlimit="10" width="6" height="6"/>
			<rect x="469.5" y="192.5" stroke="#000000" stroke-miterlimit="10" width="6" height="5"/>
			<rect x="496.5" y="194.5" stroke="#000000" stroke-miterlimit="10" width="5" height="5"/>
			<rect x="524.5" y="170.5" stroke="#000000" stroke-miterlimit="10" width="5" height="5"/>
			<rect x="550.5" y="146.5" stroke="#000000" stroke-miterlimit="10" width="6" height="5"/>
			<rect x="579.5" y="151.5" stroke="#000000" stroke-miterlimit="10" width="5" height="6"/>
			<rect x="606.5" y="138.5" stroke="#000000" stroke-miterlimit="10" width="5" height="5"/>
		</g>
	</g>
</g>
<circle fill="#27AE60" stroke="#FFFFFF" stroke-width="5" stroke-miterlimit="10" cx="226.1" cy="334.9" r="5.4"/>
<circle fill="#27AE60" stroke="#FFFFFF" stroke-width="5" stroke-miterlimit="10" cx="253.1" cy="333.2" r="5.4"/>
<circle fill="#27AE60" stroke="#FFFFFF" stroke-width="5" stroke-miterlimit="10" cx="280.9" cy="285.3" r="5.4"/>
<circle fill="#27AE60" stroke="#FFFFFF" stroke-width="5" stroke-miterlimit="10" cx="198.3" cy="380.2" r="5.4"/>
<circle fill="#27AE60" stroke="#FFFFFF" stroke-width="5" stroke-miterlimit="10" cx="171.3" cy="368.9" r="5.4"/>
<circle fill="#27AE60" stroke="#FFFFFF" stroke-width="5" stroke-miterlimit="10" cx="143.4" cy="365.4" r="5.4"/>
<circle fill="#27AE60" stroke="#FFFFFF" stroke-width="5" stroke-miterlimit="10" cx="307.9" cy="323.6" r="5.4"/>
<circle fill="#27AE60" stroke="#FFFFFF" stroke-width="5" stroke-miterlimit="10" cx="335.8" cy="237.5" r="5.4"/>
<circle fill="#27AE60" stroke="#FFFFFF" stroke-width="5" stroke-miterlimit="10" cx="362.7" cy="269.7" r="5.4"/>
<circle fill="#27AE60" stroke="#FFFFFF" stroke-width="5" stroke-miterlimit="10" cx="389.7" cy="222.7" r="5.4"/>
<circle fill="#27AE60" stroke="#FFFFFF" stroke-width="5" stroke-miterlimit="10" cx="417.6" cy="265.3" r="5.4"/>
<circle fill="#27AE60" stroke="#FFFFFF" stroke-width="5" stroke-miterlimit="10" cx="444.5" cy="245.3" r="5.4"/>
<circle fill="#27AE60" stroke="#FFFFFF" stroke-width="5" stroke-miterlimit="10" cx="472.4" cy="194.8" r="5.4"/>
<circle fill="#27AE60" stroke="#FFFFFF" stroke-width="5" stroke-miterlimit="10" cx="499.4" cy="197.4" r="5.4"/>
<circle fill="#27AE60" stroke="#FFFFFF" stroke-width="5" stroke-miterlimit="10" cx="527.2" cy="173.1" r="5.4"/>
<circle fill="#27AE60" stroke="#FFFFFF" stroke-width="5" stroke-miterlimit="10" cx="554.2" cy="148.7" r="5.4"/>
<circle fill="#27AE60" stroke="#FFFFFF" stroke-width="5" stroke-miterlimit="10" cx="582" cy="153.9" r="5.4"/>
<circle fill="#27AE60" stroke="#FFFFFF" stroke-width="5" stroke-miterlimit="10" cx="609" cy="140.9" r="5.4"/>
<text transform="matrix(0.6399 -0.7685 0.7685 0.6399 85.5038 519.3602)" font-family="'Helvetica-Bold'" font-size="13.9236">Villaverde Alto</text>
<text transform="matrix(0.6399 -0.7685 0.7685 0.6399 111.5382 555.7209)" font-family="'Helvetica-Bold'" font-size="13.9236">Villaverde Bajo Cruce</text>
<text transform="matrix(0.6399 -0.7685 0.7685 0.6399 117.7488 517.1912)" font-family="'Helvetica-Bold'" font-size="13.9236">San Cristóbal</text>
<text transform="matrix(0.6399 -0.7685 0.7685 0.6399 134.2987 560.5314)" font-family="'Helvetica-Bold'" font-size="13.9236">Ciudad de los Ángeles</text>
<text transform="matrix(0.6399 -0.7685 0.7685 0.6399 167.0264 555.926)" font-family="'Helvetica-Bold'" font-size="13.9236">San Fermín - Orcasur</text>
<text transform="matrix(0.6399 -0.7685 0.7685 0.6399 188.4574 562.5225)" font-family="'Helvetica-Bold'" font-size="13.9236">Hospital 12 de Octubre</text>
<text transform="matrix(0.6399 -0.7685 0.7685 0.6399 260.2567 510.0767)" font-family="'Helvetica-Bold'" font-size="13.9236">Almendrales</text>
<text transform="matrix(0.6399 -0.7685 0.7685 0.6399 307.7262 488.1612)" font-family="'Helvetica-Bold'" font-size="13.9236">Legazpi</text>
<text transform="matrix(0.6399 -0.7685 0.7685 0.6399 334.6073 486.4371)" font-family="'Helvetica-Bold'" font-size="13.9236">Delicias</text>
<text transform="matrix(0.6399 -0.7685 0.7685 0.6399 310.4517 548.1736)" font-family="'Helvetica-Bold'" font-size="13.9236">Palos de la Frontera</text>
<text transform="matrix(0.6399 -0.7685 0.7685 0.6399 367.2262 512.9779)" font-family="'Helvetica-Bold'" font-size="13.9236">Embajadores</text>
<text transform="matrix(0.6399 -0.7685 0.7685 0.6399 412.7969 491.5405)" font-family="'Helvetica-Bold'" font-size="13.9236">Lavapiés</text>
<text transform="matrix(0.6399 -0.7685 0.7685 0.6399 462.746 464.7971)" font-family="'Helvetica-Bold'" font-size="13.9236">Sol</text>
<text transform="matrix(0.6399 -0.7685 0.7685 0.6399 478.7666 477.5621)" font-family="'Helvetica-Bold'" font-size="13.9236">Callao</text>
<text transform="matrix(0.6399 -0.7685 0.7685 0.6399 463.7913 529.767)" font-family="'Helvetica-Bold'" font-size="13.9236">Plaza de España</text>
<text transform="matrix(0.6399 -0.7685 0.7685 0.6399 480.1707 541.2493)" font-family="'Helvetica-Bold'" font-size="13.9236">Ventura Rodríguez</text>
<text transform="matrix(0.6399 -0.7685 0.7685 0.6399 546.1041 494.7957)" font-family="'Helvetica-Bold'" font-size="13.9236">Argüelles</text>
<text transform="matrix(0.6399 -0.7685 0.7685 0.6399 578.5054 489.3765)" font-family="'Helvetica-Bold'" font-size="13.9236">Moncloa</text>
<text transform="matrix(1 0 0 1 126.8737 63.1922)" font-family="'Helvetica-Bold'" font-size="34.809">Nivel de estudios</text>
<text transform="matrix(1 0 0 1 129.4679 95.8474)"><tspan x="0" y="0" fill="#808080" font-family="'Helvetica'" font-size="17.4045">Porcentaje de población mayor de </tspan><tspan x="0" y="20.9" fill="#808080" font-family="'Helvetica'" font-size="17.4045">25 años con estudios superiores</tspan></text>
<text transform="matrix(1 -8.000000e-05 8.000000e-05 1 129.9018 425.6057)" fill="#999999" font-family="'Helvetica-Bold'" font-size="13.9236">Villaverde</text>
<text transform="matrix(1 -8.000000e-05 8.000000e-05 1 239.8705 425.5893)" fill="#999999" font-family="'Helvetica-Bold'" font-size="13.9236">Usera</text>
<text transform="matrix(1 -8.000000e-05 8.000000e-05 1 321.7602 425.6049)" fill="#999999" font-family="'Helvetica-Bold'" font-size="13.9236">Arganzuela</text>
<text transform="matrix(1 -8.000000e-05 8.000000e-05 1 418.1703 425.6061)" fill="#999999" font-family="'Helvetica-Bold'" font-size="13.9236">Centro</text>
<text transform="matrix(1 -8.000000e-05 8.000000e-05 1 569.1489 408.9023)"><tspan x="0" y="0" fill="#999999" font-family="'Helvetica-Bold'" font-size="13.9236">Chamberí</tspan><tspan x="0" y="16.7" fill="#999999" font-family="'Helvetica-Bold'" font-size="13.9236">Moncloa-A.</tspan></text>
</svg>
