<?xml version="1.0" encoding="utf-8"?>
<!-- Generator: Adobe Illustrator 18.1.1, SVG Export Plug-In . SVG Version: 6.00 Build 0)  -->
<svg version="1.1" id="Capa_1" xmlns="http://www.w3.org/2000/svg" xmlns:xlink="http://www.w3.org/1999/xlink" x="0px" y="0px"
	 viewBox="0 0 766.7 600" enable-background="new 0 0 766.7 600" xml:space="preserve">
<rect x="147.1" y="220.9" opacity="0.6" fill="#F2F2F2" width="518.5" height="144.1"/>
<rect x="147.1" y="364.8" opacity="0.6" fill="#F2F2F2" width="518.5" height="49.8"/>
<rect x="147.1" y="106.2" opacity="0.6" fill="#F2F2F2" width="518.5" height="114.6"/>
<rect x="341.2" y="106.2" fill="#FFFFFF" width="2.3" height="308.3"/>
<rect x="437.8" y="106.2" fill="#FFFFFF" width="2.3" height="308.3"/>
<rect x="589.3" y="106.2" fill="#FFFFFF" width="2.3" height="308.3"/>
<rect x="260" y="106.2" fill="#FFFFFF" width="2.3" height="308.3"/>
<rect x="147.1" y="127.1" fill="#FFFFFF" width="518.5" height="1.3"/>
<rect x="147.1" y="217.9" fill="#FFFFFF" width="518.5" height="1.3"/>
<rect x="147.7" y="308.9" fill="#FFFFFF" width="518" height="1.3"/>
<rect x="146.8" y="400.9" fill="#FFFFFF" width="518.9" height="1.3"/>
<text transform="matrix(0.6399 -0.7685 0.7685 0.6399 102.7111 508.3275)" font-family="'Helvetica-Bold'" font-size="13.9236">Villaverde Alto</text>
<text transform="matrix(0.6399 -0.7685 0.7685 0.6399 128.7455 544.6882)" font-family="'Helvetica-Bold'" font-size="13.9236">Villaverde Bajo Cruce</text>
<text transform="matrix(0.6399 -0.7685 0.7685 0.6399 134.9561 506.1585)" font-family="'Helvetica-Bold'" font-size="13.9236">San Cristóbal</text>
<text transform="matrix(0.6399 -0.7685 0.7685 0.6399 151.506 549.4987)" font-family="'Helvetica-Bold'" font-size="13.9236">Ciudad de los Ángeles</text>
<text transform="matrix(0.6399 -0.7685 0.7685 0.6399 184.2337 544.8932)" font-family="'Helvetica-Bold'" font-size="13.9236">San Fermín - Orcasur</text>
<text transform="matrix(0.6399 -0.7685 0.7685 0.6399 205.6647 551.4898)" font-family="'Helvetica-Bold'" font-size="13.9236">Hospital 12 de Octubre</text>
<text transform="matrix(0.6399 -0.7685 0.7685 0.6399 277.4641 499.0439)" font-family="'Helvetica-Bold'" font-size="13.9236">Almendrales</text>
<text transform="matrix(0.6399 -0.7685 0.7685 0.6399 324.9335 477.1285)" font-family="'Helvetica-Bold'" font-size="13.9236">Legazpi</text>
<text transform="matrix(0.6399 -0.7685 0.7685 0.6399 351.8146 475.4044)" font-family="'Helvetica-Bold'" font-size="13.9236">Delicias</text>
<text transform="matrix(0.6399 -0.7685 0.7685 0.6399 327.659 537.1409)" font-family="'Helvetica-Bold'" font-size="13.9236">Palos de la Frontera</text>
<text transform="matrix(0.6399 -0.7685 0.7685 0.6399 384.4335 501.9452)" font-family="'Helvetica-Bold'" font-size="13.9236">Embajadores</text>
<text transform="matrix(0.6399 -0.7685 0.7685 0.6399 430.0042 480.5078)" font-family="'Helvetica-Bold'" font-size="13.9236">Lavapiés</text>
<text transform="matrix(0.6399 -0.7685 0.7685 0.6399 479.9533 453.7644)" font-family="'Helvetica-Bold'" font-size="13.9236">Sol</text>
<text transform="matrix(0.6399 -0.7685 0.7685 0.6399 495.9739 466.5294)" font-family="'Helvetica-Bold'" font-size="13.9236">Callao</text>
<text transform="matrix(0.6399 -0.7685 0.7685 0.6399 480.9986 518.7343)" font-family="'Helvetica-Bold'" font-size="13.9236">Plaza de España</text>
<text transform="matrix(0.6399 -0.7685 0.7685 0.6399 497.378 530.2166)" font-family="'Helvetica-Bold'" font-size="13.9236">Ventura Rodríguez</text>
<text transform="matrix(0.6399 -0.7685 0.7685 0.6399 563.3113 483.7629)" font-family="'Helvetica-Bold'" font-size="13.9236">Argüelles</text>
<text transform="matrix(0.6399 -0.7685 0.7685 0.6399 595.7127 478.3438)" font-family="'Helvetica-Bold'" font-size="13.9236">Moncloa</text>
<text transform="matrix(1 0 0 1 144.1708 73.5896)" font-family="'Helvetica-Bold'" font-size="34.809">Paro registrado</text>
<text transform="matrix(1 0 0 1 146.765 106.2449)" fill="#808080" font-family="'Helvetica'" font-size="17.4045">Tasa absoluta de desempleo</text>
<g>
	<text transform="matrix(1 0 0 1 102.4049 408.4885)" fill="#666666" font-family="'Helvetica-Bold'" font-size="17.4">6%</text>
	<text transform="matrix(1 0 0 1 102.4049 317.2014)" fill="#666666" font-family="'Helvetica-Bold'" font-size="17.4">9%</text>
	<text transform="matrix(1 0 0 1 92.7276 225.9143)" fill="#666666" font-family="'Helvetica-Bold'" font-size="17.4">12%</text>
	<text transform="matrix(1 0 0 1 92.7276 134.6272)" fill="#8E113F" font-family="'Helvetica-Bold'" font-size="17.4">15%</text>
</g>
<g>
	<g>
		<g>
			<path fill="none" stroke="#D35400" stroke-width="9" stroke-miterlimit="10" d="M633.8,389.7c0,0-20.9,3.1-27.8,2.1
				c-7.4-1.1-21.2-7.1-27.8-10.7c-7.5-4.1-21-15-27.8-20.3c-7.1-5.6-19.7-19-27.8-23.2c-6.4-3.3-21.5-4.1-27.8-7.6
				c-8.4-4.7-18.2-27.2-27.8-26.6c-11,0.7-18.6,28-27.8,34.1c-6,4-21.3,4.9-27.8,8c-7.7,3.8-20,16.5-27.8,20.1
				c-6.5,3-21.6,10.6-27.8,7c-22.2-12.8-20.3-74-27.8-98.5c-6.5-21.4-8.2-74.1-27.8-85.1c-6.4-3.6-22.1,5.2-27.8,10
				c-10.9,9.3-16.2,41.7-27.8,50.3c-5.6,4.1-22.9,4.9-27.8,0c-20.5-20.6,1-108.5-27.8-112.9c-13.3-2-27.8,45.9-27.8,45.9"/>
		</g>
	</g>
</g>
<g>
	<g>
		<g>
			<rect x="158.5" y="179.5" stroke="#000000" stroke-miterlimit="10" width="6" height="6"/>
			<rect x="186.5" y="133.5" stroke="#000000" stroke-miterlimit="10" width="6" height="6"/>
			<rect x="214.5" y="246.5" stroke="#000000" stroke-miterlimit="10" width="6" height="6"/>
			<rect x="242.5" y="246.5" stroke="#000000" stroke-miterlimit="10" width="6" height="6"/>
			<rect x="269.5" y="196.5" stroke="#000000" stroke-miterlimit="10" width="6" height="6"/>
			<rect x="297.5" y="186.5" stroke="#000000" stroke-miterlimit="10" width="6" height="6"/>
			<rect x="325.5" y="271.5" stroke="#000000" stroke-miterlimit="10" width="6" height="6"/>
			<rect x="353.5" y="369.5" stroke="#000000" stroke-miterlimit="10" width="6" height="6"/>
			<rect x="380.5" y="362.5" stroke="#000000" stroke-miterlimit="10" width="6" height="6"/>
			<rect x="408.5" y="342.5" stroke="#000000" stroke-miterlimit="10" width="6" height="6"/>
			<rect x="436.5" y="334.5" stroke="#000000" stroke-miterlimit="10" width="6" height="6"/>
			<rect x="464.5" y="300.5" stroke="#000000" stroke-miterlimit="10" width="6" height="6"/>
			<rect x="491.5" y="327.5" stroke="#000000" stroke-miterlimit="10" width="6" height="6"/>
			<rect x="519.5" y="334.5" stroke="#000000" stroke-miterlimit="10" width="6" height="6"/>
			<rect x="547.5" y="357.5" stroke="#000000" stroke-miterlimit="10" width="6" height="6"/>
			<rect x="575.5" y="378.5" stroke="#000000" stroke-miterlimit="10" width="6" height="6"/>
			<rect x="602.5" y="388.5" stroke="#000000" stroke-miterlimit="10" width="6" height="6"/>
			<rect x="630.5" y="386.5" stroke="#000000" stroke-miterlimit="10" width="6" height="6"/>
		</g>
	</g>
</g>
<circle fill="#D35400" stroke="#FFFFFF" stroke-width="5" stroke-miterlimit="10" cx="161.4" cy="182.4" r="5.4"/>
<circle fill="#D35400" stroke="#FFFFFF" stroke-width="5" stroke-miterlimit="10" cx="189.4" cy="136.4" r="5.4"/>
<circle fill="#D35400" stroke="#FFFFFF" stroke-width="5" stroke-miterlimit="10" cx="217.4" cy="249.4" r="5.4"/>
<circle fill="#D35400" stroke="#FFFFFF" stroke-width="5" stroke-miterlimit="10" cx="245.4" cy="249.4" r="5.4"/>
<circle fill="#D35400" stroke="#FFFFFF" stroke-width="5" stroke-miterlimit="10" cx="272.4" cy="199.4" r="5.4"/>
<circle fill="#D35400" stroke="#FFFFFF" stroke-width="5" stroke-miterlimit="10" cx="300.4" cy="189.4" r="5.4"/>
<circle fill="#D35400" stroke="#FFFFFF" stroke-width="5" stroke-miterlimit="10" cx="328.4" cy="274.4" r="5.4"/>
<circle fill="#D35400" stroke="#FFFFFF" stroke-width="5" stroke-miterlimit="10" cx="356.4" cy="372.4" r="5.4"/>
<circle fill="#D35400" stroke="#FFFFFF" stroke-width="5" stroke-miterlimit="10" cx="383.4" cy="365.4" r="5.4"/>
<circle fill="#D35400" stroke="#FFFFFF" stroke-width="5" stroke-miterlimit="10" cx="411.4" cy="345.4" r="5.4"/>
<circle fill="#D35400" stroke="#FFFFFF" stroke-width="5" stroke-miterlimit="10" cx="439.4" cy="337.4" r="5.4"/>
<circle fill="#D35400" stroke="#FFFFFF" stroke-width="5" stroke-miterlimit="10" cx="467.4" cy="303.4" r="5.4"/>
<circle fill="#D35400" stroke="#FFFFFF" stroke-width="5" stroke-miterlimit="10" cx="494.4" cy="330.4" r="5.4"/>
<circle fill="#D35400" stroke="#FFFFFF" stroke-width="5" stroke-miterlimit="10" cx="522.4" cy="337.4" r="5.4"/>
<circle fill="#D35400" stroke="#FFFFFF" stroke-width="5" stroke-miterlimit="10" cx="550.4" cy="360.4" r="5.4"/>
<circle fill="#D35400" stroke="#FFFFFF" stroke-width="5" stroke-miterlimit="10" cx="578.4" cy="381.4" r="5.4"/>
<circle fill="#D35400" stroke="#FFFFFF" stroke-width="5" stroke-miterlimit="10" cx="605.4" cy="391.4" r="5.4"/>
<circle fill="#D35400" stroke="#FFFFFF" stroke-width="5" stroke-miterlimit="10" cx="633.4" cy="389.4" r="5.4"/>
<text transform="matrix(1 -8.000000e-05 8.000000e-05 1 147.1098 414.5732)" fill="#999999" font-family="'Helvetica-Bold'" font-size="13.9236">Villaverde</text>
<text transform="matrix(1 -8.000000e-05 8.000000e-05 1 261.3197 414.5566)" fill="#999999" font-family="'Helvetica-Bold'" font-size="13.9236">Usera</text>
<text transform="matrix(1 -8.000000e-05 8.000000e-05 1 343.2094 414.5722)" fill="#999999" font-family="'Helvetica-Bold'" font-size="13.9236">Arganzuela</text>
<text transform="matrix(1 -8.000000e-05 8.000000e-05 1 440.1703 414.5566)" fill="#999999" font-family="'Helvetica-Bold'" font-size="13.9236">Centro</text>
<text transform="matrix(1 -8.000000e-05 8.000000e-05 1 591.0522 414.5558)" fill="#999999" font-family="'Helvetica-Bold'" font-size="13.9236">Ch. / M-A.</text>
</svg>
