<?xml version="1.0" encoding="utf-8"?>
<!-- Generator: Adobe Illustrator 18.1.1, SVG Export Plug-In . SVG Version: 6.00 Build 0)  -->
<svg version="1.1" id="Capa_1" xmlns="http://www.w3.org/2000/svg" xmlns:xlink="http://www.w3.org/1999/xlink" x="0px" y="0px"
	 viewBox="0 0 870 624.1" enable-background="new 0 0 870 624.1" xml:space="preserve">
<rect x="278.1" y="106.6" opacity="0.6" fill="#F2F2F2" width="513.3" height="163.4"/>
<rect x="278.1" y="270" opacity="0.6" fill="#F2F2F2" width="513.3" height="124.4"/>
<rect x="278.1" y="394.2" opacity="0.6" fill="#F2F2F2" width="513.3" height="43"/>
<rect x="467.9" y="106.6" fill="#FFFFFF" width="1.9" height="330.6"/>
<rect x="564.5" y="106.6" fill="#FFFFFF" width="2.2" height="330.6"/>
<rect x="716" y="106.6" fill="#FFFFFF" width="2.3" height="330.6"/>
<rect x="386.7" y="106.6" fill="#FFFFFF" width="2.2" height="330.6"/>
<rect x="277.7" y="150.3" fill="#FFFFFF" width="513.8" height="1.1"/>
<rect x="277.9" y="388.4" fill="#FFFFFF" width="513.5" height="1.3"/>
<rect x="277.7" y="311.9" fill="#FFFFFF" width="513.8" height="1.1"/>
<rect x="277.7" y="270.6" fill="#FFFFFF" width="513.8" height="1.1"/>
<rect x="277.7" y="229.3" fill="#FFFFFF" width="513.8" height="1.1"/>
<rect x="278.1" y="188.7" fill="#FFFFFF" width="513.3" height="1.1"/>
<rect x="277.7" y="352.5" fill="#FFFFFF" width="513.8" height="1.1"/>
<g>
	<g>
		<g>
			<path fill="none" stroke="#3498DB" stroke-width="9" stroke-miterlimit="10" d="M757,150.9c0,0-19.4-0.5-27-0.1
				c-7,0.4-21.2-1.9-27.8,0.1c-14.4,4.3-23.9,69.1-27,78.4c-2.9,8.7-21.4,35.4-27.8,41.9c-5,5.1-22.8,32.6-26.7,41.3
				c-6.1,13.6-15.2,75.9-28,76.5c-8.4,0.4-22.3-27.6-27.1-36c-6.3-11-15.3-83.7-27.8-81.9c-13.4,1.9-15.2,43.4-27,41.3
				c-11.1-1.9-20.8-46.4-27-41.3c-17.4,14.4-5,40.6-27.6,41.3c-11.9,0.4-15.2-1.6-27,0c-13.7,1.8-19.4,30.6-28.1,40.6
				c-4.8,5.5-17.9-84.5-27-81.9c-12.7,3.6-14,117.9-27.9,117.9c-7.4,0-19.2,0-27,0c-6.9,0-27.7,0-27.7,0"/>
		</g>
	</g>
</g>
<text transform="matrix(1 0 0 1 108.2668 395.7688)" fill="#8E113F" font-family="'Helvetica-Bold'" font-size="17.4045">Menos de 23.140€</text>
<text transform="matrix(1 0 0 1 58.5089 357.7571)" fill="#808080" font-family="'Helvetica-Bold'" font-size="17.4045">Entre 23.140€ y 25.295€</text>
<text transform="matrix(1 0 0 1 27.1796 317.9034)"><tspan x="0" y="0" fill="#808080" font-family="'Helvetica-Bold'" font-size="17.4045" letter-spacing="26">	</tspan><tspan x="31.3" y="0" fill="#808080" font-family="'Helvetica-Bold'" font-size="17.4045">Entre 25.295€ y 27.760€</tspan></text>
<text transform="matrix(1 0 0 1 58.5089 276.2067)" fill="#808080" font-family="'Helvetica-Bold'" font-size="17.4045">Entre 27.760€ y 31.040€</text>
<text transform="matrix(1 0 0 1 58.5089 235.6152)" fill="#808080" font-family="'Helvetica-Bold'" font-size="17.4045">Entre 31.040€ y 34.950€</text>
<text transform="matrix(1 0 0 1 58.5072 194.6549)" fill="#808080" font-family="'Helvetica-Bold'" font-size="17.4045">Entre 34.950€ y 39.755€</text>
<g>
	<g>
		<g>
			<rect x="754.5" y="151.5" stroke="#000000" stroke-miterlimit="10" width="5" height="5"/>
		</g>
	</g>
</g>
<circle fill="#3498DB" stroke="#FFFFFF" stroke-width="5" stroke-miterlimit="10" cx="374.1" cy="270.9" r="5.4"/>
<circle fill="#3498DB" stroke="#FFFFFF" stroke-width="5" stroke-miterlimit="10" cx="401.1" cy="353.2" r="5.4"/>
<circle fill="#3498DB" stroke="#FFFFFF" stroke-width="5" stroke-miterlimit="10" cx="428.9" cy="312.3" r="5.4"/>
<circle fill="#3498DB" stroke="#FFFFFF" stroke-width="5" stroke-miterlimit="10" cx="346.3" cy="389.2" r="5.4"/>
<circle fill="#3498DB" stroke="#FFFFFF" stroke-width="5" stroke-miterlimit="10" cx="319.3" cy="388.9" r="5.4"/>
<circle fill="#3498DB" stroke="#FFFFFF" stroke-width="5" stroke-miterlimit="10" cx="291.4" cy="389.4" r="5.4"/>
<circle fill="#3498DB" stroke="#FFFFFF" stroke-width="5" stroke-miterlimit="10" cx="455.9" cy="312.6" r="5.4"/>
<circle fill="#3498DB" stroke="#FFFFFF" stroke-width="5" stroke-miterlimit="10" cx="483.8" cy="271.5" r="5.4"/>
<circle fill="#3498DB" stroke="#FFFFFF" stroke-width="5" stroke-miterlimit="10" cx="510.7" cy="312.7" r="5.4"/>
<circle fill="#3498DB" stroke="#FFFFFF" stroke-width="5" stroke-miterlimit="10" cx="537.7" cy="271.7" r="5.4"/>
<circle fill="#3498DB" stroke="#FFFFFF" stroke-width="5" stroke-miterlimit="10" cx="565.6" cy="353.3" r="5.4"/>
<circle fill="#3498DB" stroke="#FFFFFF" stroke-width="5" stroke-miterlimit="10" cx="592.5" cy="389.3" r="5.4"/>
<circle fill="#3498DB" stroke="#FFFFFF" stroke-width="5" stroke-miterlimit="10" cx="620.4" cy="312.8" r="5.4"/>
<circle fill="#3498DB" stroke="#FFFFFF" stroke-width="5" stroke-miterlimit="10" cx="647.4" cy="271.4" r="5.4"/>
<circle fill="#3498DB" stroke="#FFFFFF" stroke-width="5" stroke-miterlimit="10" cx="675.2" cy="230.1" r="5.4"/>
<circle fill="#3498DB" stroke="#FFFFFF" stroke-width="5" stroke-miterlimit="10" cx="702.2" cy="150.7" r="5.4"/>
<circle fill="#3498DB" stroke="#FFFFFF" stroke-width="5" stroke-miterlimit="10" cx="730" cy="150.9" r="5.4"/>
<circle fill="#3498DB" stroke="#FFFFFF" stroke-width="5" stroke-miterlimit="10" cx="757" cy="150.9" r="5.4"/>
<text transform="matrix(0.6399 -0.7685 0.7685 0.6399 233.5038 532.3602)" font-family="'Helvetica-Bold'" font-size="13.9236">Villaverde Alto</text>
<text transform="matrix(0.6399 -0.7685 0.7685 0.6399 259.5382 568.7209)" font-family="'Helvetica-Bold'" font-size="13.9236">Villaverde Bajo Cruce</text>
<text transform="matrix(0.6399 -0.7685 0.7685 0.6399 265.7488 530.1912)" font-family="'Helvetica-Bold'" font-size="13.9236">San Cristóbal</text>
<text transform="matrix(0.6399 -0.7685 0.7685 0.6399 282.2987 573.5314)" font-family="'Helvetica-Bold'" font-size="13.9236">Ciudad de los Ángeles</text>
<text transform="matrix(0.6399 -0.7685 0.7685 0.6399 315.0264 568.926)" font-family="'Helvetica-Bold'" font-size="13.9236">San Fermín - Orcasur</text>
<text transform="matrix(0.6399 -0.7685 0.7685 0.6399 336.4574 575.5225)" font-family="'Helvetica-Bold'" font-size="13.9236">Hospital 12 de Octubre</text>
<text transform="matrix(0.6399 -0.7685 0.7685 0.6399 408.2567 523.0767)" font-family="'Helvetica-Bold'" font-size="13.9236">Almendrales</text>
<text transform="matrix(0.6399 -0.7685 0.7685 0.6399 455.7262 501.1612)" font-family="'Helvetica-Bold'" font-size="13.9236">Legazpi</text>
<text transform="matrix(0.6399 -0.7685 0.7685 0.6399 482.6073 499.4371)" font-family="'Helvetica-Bold'" font-size="13.9236">Delicias</text>
<text transform="matrix(0.6399 -0.7685 0.7685 0.6399 458.4517 561.1736)" font-family="'Helvetica-Bold'" font-size="13.9236">Palos de la Frontera</text>
<text transform="matrix(0.6399 -0.7685 0.7685 0.6399 515.2262 525.9779)" font-family="'Helvetica-Bold'" font-size="13.9236">Embajadores</text>
<text transform="matrix(0.6399 -0.7685 0.7685 0.6399 560.7969 504.5405)" font-family="'Helvetica-Bold'" font-size="13.9236">Lavapiés</text>
<text transform="matrix(0.6399 -0.7685 0.7685 0.6399 610.746 477.7971)" font-family="'Helvetica-Bold'" font-size="13.9236">Sol</text>
<text transform="matrix(0.6399 -0.7685 0.7685 0.6399 626.7666 490.5621)" font-family="'Helvetica-Bold'" font-size="13.9236">Callao</text>
<text transform="matrix(0.6399 -0.7685 0.7685 0.6399 611.7913 542.767)" font-family="'Helvetica-Bold'" font-size="13.9236">Plaza de España</text>
<text transform="matrix(0.6399 -0.7685 0.7685 0.6399 628.1707 554.2493)" font-family="'Helvetica-Bold'" font-size="13.9236">Ventura Rodríguez</text>
<text transform="matrix(0.6399 -0.7685 0.7685 0.6399 694.1041 507.7957)" font-family="'Helvetica-Bold'" font-size="13.9236">Argüelles</text>
<text transform="matrix(0.6399 -0.7685 0.7685 0.6399 726.5054 502.3765)" font-family="'Helvetica-Bold'" font-size="13.9236">Moncloa</text>
<text transform="matrix(1 0 0 1 278.1212 69.1922)" font-family="'Helvetica-Bold'" font-size="34.809">Renta media por hogar</text>
<text transform="matrix(1 0 0 1 277.6856 106.5634)" fill="#808080" font-family="'Helvetica'" font-size="17.4045">Media de ingresos por hogar al año (en tramos de ingresos)</text>
<text transform="matrix(1 0 0 1 129.5294 156.6957)" fill="#808080" font-family="'Helvetica-Bold'" font-size="17.4045">Más de 39.755€</text>
<text transform="matrix(1 -8.000000e-05 8.000000e-05 1 278.0492 437.2062)" fill="#999999" font-family="'Helvetica-Bold'" font-size="13.9236">Villaverde</text>
<text transform="matrix(1 -8.000000e-05 8.000000e-05 1 388.018 437.1899)" fill="#999999" font-family="'Helvetica-Bold'" font-size="13.9236">Usera</text>
<text transform="matrix(1 -8.000000e-05 8.000000e-05 1 469.9076 437.2055)" fill="#999999" font-family="'Helvetica-Bold'" font-size="13.9236">Arganzuela</text>
<text transform="matrix(1 -8.000000e-05 8.000000e-05 1 566.3178 437.2067)" fill="#999999" font-family="'Helvetica-Bold'" font-size="13.9236">Centro</text>
<text transform="matrix(1 -8.000000e-05 8.000000e-05 1 717.2963 420.5029)"><tspan x="0" y="0" fill="#999999" font-family="'Helvetica-Bold'" font-size="13.9236">Chamberí</tspan><tspan x="0" y="16.7" fill="#999999" font-family="'Helvetica-Bold'" font-size="13.9236">Moncloa-A.</tspan></text>
</svg>
